{
  "accessors": [
    {
      "bufferView": 2,
      "componentType": 5126,
      "count": 2346,
      "max": [
        203.8004150390625,
        127.02257537841797,
        60.66233444213867
      ],
      "min": [
        -203.80038452148438,
        -291.8479309082031,
        -60.66233444213867
      ],
      "type": "VEC3"
    },
    {
      "bufferView": 2,
      "byteOffset": 28152,
      "componentType": 5126,
      "count": 2346,
      "max": [
        0.9997328519821167,
        0.9848703145980835,
        0.9999997615814209
      ],
      "min": [
        -0.9997329115867615,
        -1.0,
        -0.9999997615814209
      ],
      "type": "VEC3"
    },
    {
      "bufferView": 3,
      "componentType": 5126,
      "count": 2346,
      "max": [
        1.0,
        0.9997333884239197,
        0.36617499589920044,
        1.0
      ],
      "min": [
        -0.9931641221046448,
        -0.9996506571769714,
        -0.3661729395389557,
        1.0
      ],
      "type": "VEC4"
    },
    {
      "bufferView": 1,
      "componentType": 5126,
      "count": 2346,
      "max": [
        0.8789315819740295,
        0.9310085773468018
      ],
      "min": [
        0.010425418615341187,
        0.011723935604095459
      ],
      "type": "VEC2"
    },
    {
      "bufferView": 0,
      "componentType": 5125,
      "count": 12096,
      "type": "SCALAR"
    },
    {
      "bufferView": 2,
      "byteOffset": 56304,
      "componentType": 5126,
      "count": 4495,
      "max": [
        159.3846435546875,
        78.78356170654297,
        25.835857391357422
      ],
      "min": [
        -159.3846435546875,
        -246.7244873046875,
        -25.835857391357422
      ],
      "type": "VEC3"
    },
    {
      "bufferView": 2,
      "byteOffset": 110244,
      "componentType": 5126,
      "count": 4495,
      "max": [
        1.0,
        1.0,
        1.0
      ],
      "min": [
        -1.0,
        -1.0,
        -1.0
      ],
      "type": "VEC3"
    },
    {
      "bufferView": 3,
      "byteOffset": 37536,
      "componentType": 5126,
      "count": 4495,
      "max": [
        1.0,
        0.814736545085907,
        1.0,
        1.0
      ],
      "min": [
        -1.0,
        -0.7954134941101074,
        -1.0,
        1.0
      ],
      "type": "VEC4"
    },
    {
      "bufferView": 1,
      "byteOffset": 18768,
      "componentType": 5126,
      "count": 4495,
      "max": [
        0.9644727110862732,
        0.9632924795150757
      ],
      "min": [
        0.0031542517244815826,
        0.003224216401576996
      ],
      "type": "VEC2"
    },
    {
      "bufferView": 0,
      "byteOffset": 48384,
      "componentType": 5125,
      "count": 23664,
      "type": "SCALAR"
    },
    {
      "bufferView": 2,
      "byteOffset": 164184,
      "componentType": 5126,
      "count": 1391,
      "max": [
        5.6362810134887695,
        19.90284538269043,
        36.481353759765625
      ],
      "min": [
        -5.592775821685791,
        -412.766357421875,
        -35.81635665893555
      ],
      "type": "VEC3"
    },
    {
      "bufferView": 2,
      "byteOffset": 180876,
      "componentType": 5126,
      "count": 1391,
      "max": [
        1.0,
        0.9810775518417358,
        1.0
      ],
      "min": [
        -1.0,
        -0.9810717105865479,
        -1.0
      ],
      "type": "VEC3"
    },
    {
      "bufferView": 3,
      "byteOffset": 109456,
      "componentType": 5126,
      "count": 1391,
      "max": [
        0.9998998045921326,
        0.999777615070343,
        0.9999963045120239,
        1.0
      ],
      "min": [
        -1.0,
        -1.0,
        -0.9890577793121338,
        -1.0
      ],
      "type": "VEC4"
    },
    {
      "bufferView": 1,
      "byteOffset": 54728,
      "componentType": 5126,
      "count": 1391,
      "max": [
        0.9988524317741394,
        0.9919882416725159
      ],
      "min": [
        0.056667670607566833,
        0.13875824213027954
      ],
      "type": "VEC2"
    },
    {
      "bufferView": 0,
      "byteOffset": 143040,
      "componentType": 5125,
      "count": 6330,
      "type": "SCALAR"
    },
    {
      "bufferView": 2,
      "byteOffset": 197568,
      "componentType": 5126,
      "count": 1391,
      "max": [
        5.6362810134887695,
        19.90284538269043,
        36.481353759765625
      ],
      "min": [
        -5.592775821685791,
        -412.766357421875,
        -35.81635665893555
      ],
      "type": "VEC3"
    },
    {
      "bufferView": 2,
      "byteOffset": 214260,
      "componentType": 5126,
      "count": 1391,
      "max": [
        1.0,
        0.9810775518417358,
        1.0
      ],
      "min": [
        -1.0,
        -0.9810717105865479,
        -1.0
      ],
      "type": "VEC3"
    },
    {
      "bufferView": 3,
      "byteOffset": 131712,
      "componentType": 5126,
      "count": 1391,
      "max": [
        0.9999022483825684,
        0.999777615070343,
        0.9999962449073792,
        1.0
      ],
      "min": [
        -1.0,
        -1.0,
        -0.9890565872192383,
        -1.0
      ],
      "type": "VEC4"
    },
    {
      "bufferView": 1,
      "byteOffset": 65856,
      "componentType": 5126,
      "count": 1391,
      "max": [
        0.9988524317741394,
        0.961148202419281
      ],
      "min": [
        0.056667670607566833,
        0.14219841361045837
      ],
      "type": "VEC2"
    },
    {
      "bufferView": 0,
      "byteOffset": 168360,
      "componentType": 5125,
      "count": 6330,
      "type": "SCALAR"
    }
  ],
  "asset": {
    "extras": {
      "author": "Kyyy_24 (https://sketchfab.com/luckyardrianto27)",
      "license": "CC-BY-4.0 (http://creativecommons.org/licenses/by/4.0/)",
      "source": "https://sketchfab.com/3d-models/shield-c9282e68580f43b1a6b51b93d88968fb",
      "title": "Shield"
    },
    "generator": "Sketchfab-13.83.0",
    "version": "2.0"
  },
  "bufferViews": [
    {
      "buffer": 0,
      "byteLength": 193680,
      "name": "floatBufferViews",
      "target": 34963
    },
    {
      "buffer": 0,
      "byteLength": 76984,
      "byteOffset": 193680,
      "byteStride": 8,
      "name": "floatBufferViews",
      "target": 34962
    },
    {
      "buffer": 0,
      "byteLength": 230952,
      "byteOffset": 270664,
      "byteStride": 12,
      "name": "floatBufferViews",
      "target": 34962
    },
    {
      "buffer": 0,
      "byteLength": 153968,
      "byteOffset": 501616,
      "byteStride": 16,
      "name": "floatBufferViews",
      "target": 34962
    }
  ],
  "buffers": [
    {
      "byteLength": 655584,
      "uri": ".bin"
    }
  ],
  "images": [
    {
      "uri": "textures/Scene_-_Root_baseColor.png"
    },
    {
      "uri": "textures/Scene_-_Root_metallicRoughness.png"
    },
    {
      "uri": "textures/Scene_-_Root_normal.png"
    }
  ],
  "materials": [
    {
      "doubleSided": true,
      "emissiveFactor": [
        0.2,
        0.2,
        0.2
      ],
      "emissiveTexture": {
        "index": 0
      },
      "name": "Scene_-_Root",
      "normalTexture": {
        "index": 2
      },
      "occlusionTexture": {
        "index": 1
      },
      "pbrMetallicRoughness": {
        "baseColorTexture": {
          "index": 0
        },
        "metallicRoughnessTexture": {
          "index": 1
        }
      }
    }
  ],
  "meshes": [
    {
      "name": "Cube.006__0",
      "primitives": [
        {
          "attributes": {
            "NORMAL": 1,
            "POSITION": 0,
            "TANGENT": 2,
            "TEXCOORD_0": 3
          },
          "indices": 4,
          "material": 0,
          "mode": 4
        }
      ]
    },
    {
      "name": "Cube.007__0",
      "primitives": [
        {
          "attributes": {
            "NORMAL": 6,
            "POSITION": 5,
            "TANGENT": 7,
            "TEXCOORD_0": 8
          },
          "indices": 9,
          "material": 0,
          "mode": 4
        }
      ]
    },
    {
      "name": "Circle.004__0",
      "primitives": [
        {
          "attributes": {
            "NORMAL": 11,
            "POSITION": 10,
            "TANGENT": 12,
            "TEXCOORD_0": 13
          },
          "indices": 14,
          "material": 0,
          "mode": 4
        }
      ]
    },
    {
      "name": "Circle.005__0",
      "primitives": [
        {
          "attributes": {
            "NORMAL": 16,
            "POSITION": 15,
            "TANGENT": 17,
            "TEXCOORD_0": 18
          },
          "indices": 19,
          "material": 0,
          "mode": 4
        }
      ]
    }
  ],
  "nodes": [
    {
      "children": [
        1
      ],
      "matrix": [
        1.0,
        0.0,
        0.0,
        0.0,
        0.0,
        2.220446049250313e-16,
        -1.0,
        0.0,
        0.0,
        1.0,
        2.220446049250313e-16,
        0.0,
        0.0,
        0.0,
        0.0,
        1.0
      ],
      "name": "Sketchfab_model"
    },
    {
      "children": [
        2
      ],
      "matrix": [
        0.009999999776482582,
        0.0,
        0.0,
        0.0,
        0.0,
        0.0,
        0.009999999776482582,
        0.0,
        0.0,
        -0.009999999776482582,
        0.0,
        0.0,
        0.0,
        0.0,
        0.0,
        1.0
      ],
      "name": "5517d5d1920f4715ae29262c8840f0e6.fbx"
    },
    {
      "children": [
        3,
        5,
        7,
        9
      ],
      "name": "RootNode"
    },
    {
      "children": [
        4
      ],
      "name": "Cube.006"
    },
    {
      "mesh": 0,
      "name": "Cube.006__0"
    },
    {
      "children": [
        6
      ],
      "name": "Cube.007"
    },
    {
      "mesh": 1,
      "name": "Cube.007__0"
    },
    {
      "children": [
        8
      ],
      "matrix": [
        0.7042584034235111,
        -0.5194039803632791,
        0.4839830641563295,
        0.0,
        -0.35759385303659375,
        0.32940113206056787,
        0.8738544103382779,
        0.0,
        -0.613308028218945,
        -0.788488680565548,
        0.046247844730224474,
        0.0,
        -88.42721557617188,
        77.15672302246094,
        371.3048400878906,
        1.0
      ],
      "name": "Circle.004"
    },
    {
      "mesh": 2,
      "name": "Circle.004__0"
    },
    {
      "children": [
        10
      ],
      "matrix": [
        0.38021945392982803,
        -0.6958386486969681,
        0.6092961035759878,
        0.0,
        -0.3700727817907932,
        0.4892818405992632,
        0.7897146936888887,
        0.0,
        -0.8476315243402349,
        -0.5257487935794077,
        -0.07147647015040048,
        0.0,
        -228.0872802734375,
        147.49070739746094,
        338.64349365234375,
        1.0
      ],
      "name": "Circle.005"
    },
    {
      "mesh": 3,
      "name": "Circle.005__0"
    }
  ],
  "samplers": [
    {
      "magFilter": 9729,
      "minFilter": 9987,
      "wrapS": 10497,
      "wrapT": 10497
    }
  ],
  "scene": 0,
  "scenes": [
    {
      "name": "Sketchfab_Scene",
      "nodes": [
        0
      ]
    }
  ],
  "textures": [
    {
      "sampler": 0,
      "source": 0
    },
    {
      "sampler": 0,
      "source": 1
    },
    {
      "sampler": 0,
      "source": 2
    }
  ]
}
